<svg width="780" height="290" viewBox="0 0 780 290" fill="none" xmlns="http://www.w3.org/2000/svg" role="img" aria-label="exotickic activity graph">
  <style>
    .bg { fill: #0d1117; }
    .title { font: 600 14px Segoe UI, Arial, sans-serif; fill: #2f81f7; }
    .axis { font: 9px Segoe UI, Arial, sans-serif; fill: #2f81f7; }
    .grid { stroke: #0b376d; stroke-width: 1; stroke-dasharray: 2 2; }
    .line { fill: none; stroke: #2f81f7; stroke-width: 3; stroke-linecap: round; stroke-linejoin: round; }
  </style>
  <rect class="bg" width="780" height="290" rx="8"/>
  <text x="390" y="24" class="title" text-anchor="middle">활동</text>
  <line x1="84" y1="47" x2="728" y2="47" class="grid"/>
  <line x1="84" y1="78" x2="728" y2="78" class="grid"/>
  <line x1="84" y1="109" x2="728" y2="109" class="grid"/>
  <line x1="84" y1="140" x2="728" y2="140" class="grid"/>
  <line x1="84" y1="171" x2="728" y2="171" class="grid"/>
  <line x1="84" y1="202" x2="728" y2="202" class="grid"/>
  <line x1="84" y1="47" x2="84" y2="202" class="grid"/><line x1="112" y1="47" x2="112" y2="202" class="grid"/><line x1="140" y1="47" x2="140" y2="202" class="grid"/><line x1="168" y1="47" x2="168" y2="202" class="grid"/><line x1="196" y1="47" x2="196" y2="202" class="grid"/><line x1="224" y1="47" x2="224" y2="202" class="grid"/><line x1="252" y1="47" x2="252" y2="202" class="grid"/><line x1="280" y1="47" x2="280" y2="202" class="grid"/><line x1="308" y1="47" x2="308" y2="202" class="grid"/><line x1="336" y1="47" x2="336" y2="202" class="grid"/><line x1="364" y1="47" x2="364" y2="202" class="grid"/><line x1="392" y1="47" x2="392" y2="202" class="grid"/><line x1="420" y1="47" x2="420" y2="202" class="grid"/><line x1="448" y1="47" x2="448" y2="202" class="grid"/><line x1="476" y1="47" x2="476" y2="202" class="grid"/><line x1="504" y1="47" x2="504" y2="202" class="grid"/><line x1="532" y1="47" x2="532" y2="202" class="grid"/><line x1="560" y1="47" x2="560" y2="202" class="grid"/><line x1="588" y1="47" x2="588" y2="202" class="grid"/><line x1="616" y1="47" x2="616" y2="202" class="grid"/><line x1="644" y1="47" x2="644" y2="202" class="grid"/><line x1="672" y1="47" x2="672" y2="202" class="grid"/><line x1="700" y1="47" x2="700" y2="202" class="grid"/><line x1="728" y1="47" x2="728" y2="202" class="grid"/>
  <text x="48" y="126" class="axis" transform="rotate(-90 48 126)">Contributions</text>
  <text x="390" y="240" class="axis" text-anchor="middle">Days</text>
  <polyline class="line" points="84.00,202.00 112.00,202.00 140.00,202.00 168.00,202.00 196.00,202.00 224.00,202.00 252.00,202.00 280.00,202.00 308.00,202.00 336.00,202.00 364.00,202.00 392.00,202.00 420.00,202.00 448.00,202.00 476.00,202.00 504.00,202.00 532.00,202.00 560.00,202.00 588.00,202.00 616.00,202.00 644.00,202.00 672.00,201.10 700.00,98.52 728.00,47.00"/>
  <circle cx="84" cy="202" r="2.8" fill="#c9d1d9"/><circle cx="112" cy="202" r="2.8" fill="#c9d1d9"/><circle cx="140" cy="202" r="2.8" fill="#c9d1d9"/><circle cx="168" cy="202" r="2.8" fill="#c9d1d9"/><circle cx="196" cy="202" r="2.8" fill="#c9d1d9"/><circle cx="224" cy="202" r="2.8" fill="#c9d1d9"/><circle cx="252" cy="202" r="2.8" fill="#c9d1d9"/><circle cx="280" cy="202" r="2.8" fill="#c9d1d9"/><circle cx="308" cy="202" r="2.8" fill="#c9d1d9"/><circle cx="336" cy="202" r="2.8" fill="#c9d1d9"/><circle cx="364" cy="202" r="2.8" fill="#c9d1d9"/><circle cx="392" cy="202" r="2.8" fill="#c9d1d9"/><circle cx="420" cy="202" r="2.8" fill="#c9d1d9"/><circle cx="448" cy="202" r="2.8" fill="#c9d1d9"/><circle cx="476" cy="202" r="2.8" fill="#c9d1d9"/><circle cx="504" cy="202" r="2.8" fill="#c9d1d9"/><circle cx="532" cy="202" r="2.8" fill="#c9d1d9"/><circle cx="560" cy="202" r="2.8" fill="#c9d1d9"/><circle cx="588" cy="202" r="2.8" fill="#c9d1d9"/><circle cx="616" cy="202" r="2.8" fill="#c9d1d9"/><circle cx="644" cy="202" r="2.8" fill="#c9d1d9"/><circle cx="672" cy="201.09620991253644" r="3.5" fill="#f6f8fa"/><circle cx="700" cy="98.51603498542273" r="3.5" fill="#f6f8fa"/><circle cx="728" cy="47" r="3.5" fill="#f6f8fa"/>
  <text x="84" y="216" class="axis" text-anchor="middle">1</text><text x="112" y="216" class="axis" text-anchor="middle">2</text><text x="140" y="216" class="axis" text-anchor="middle">3</text><text x="168" y="216" class="axis" text-anchor="middle">4</text><text x="196" y="216" class="axis" text-anchor="middle">5</text><text x="224" y="216" class="axis" text-anchor="middle">6</text><text x="252" y="216" class="axis" text-anchor="middle">7</text><text x="280" y="216" class="axis" text-anchor="middle">8</text><text x="308" y="216" class="axis" text-anchor="middle">9</text><text x="336" y="216" class="axis" text-anchor="middle">10</text><text x="364" y="216" class="axis" text-anchor="middle">11</text><text x="392" y="216" class="axis" text-anchor="middle">12</text><text x="420" y="216" class="axis" text-anchor="middle">13</text><text x="448" y="216" class="axis" text-anchor="middle">14</text><text x="476" y="216" class="axis" text-anchor="middle">15</text><text x="504" y="216" class="axis" text-anchor="middle">16</text><text x="532" y="216" class="axis" text-anchor="middle">17</text><text x="560" y="216" class="axis" text-anchor="middle">18</text><text x="588" y="216" class="axis" text-anchor="middle">19</text><text x="616" y="216" class="axis" text-anchor="middle">20</text><text x="644" y="216" class="axis" text-anchor="middle">21</text><text x="672" y="216" class="axis" text-anchor="middle">22</text><text x="700" y="216" class="axis" text-anchor="middle">23</text><text x="728" y="216" class="axis" text-anchor="middle">24</text>
</svg>